<svg xmlns="http://www.w3.org/2000/svg"><style>:root svg:not(:target){display:none}</style><svg viewBox="0 0 24 24" id="star"><path fill="#currentColor" d="M17.562 21.56a1.003 1.003 0 0 1-.465-.115L12 18.765l-5.097 2.68a1 1 0 0 1-1.451-1.054l.973-5.676-4.123-4.02a1 1 0 0 1 .554-1.705l5.699-.828 2.548-5.164a1.042 1.042 0 0 1 1.794 0l2.548 5.164 5.699.828a1 1 0 0 1 .554 1.706l-4.123 4.019.973 5.676a1 1 0 0 1-.986 1.169Z"></path><path fill="#001cff" d="M22 9.67a1 1 0 0 0-.86-.67l-5.69-.83L12.9 3a1 1 0 0 0-1.8 0L8.55 8.16 2.86 9a1 1 0 0 0-.81.68 1 1 0 0 0 .25 1l4.13 4-1 5.68a1 1 0 0 0 .4 1 1 1 0 0 0 1.05.07L12 18.76l5.1 2.68a.93.93 0 0 0 .46.12 1 1 0 0 0 .59-.19 1 1 0 0 0 .4-1l-1-5.68 4.13-4A1 1 0 0 0 22 9.67Zm-6.15 4a1 1 0 0 0-.29.89l.72 4.19-3.76-2a1 1 0 0 0-.94 0l-3.76 2 .72-4.19a1 1 0 0 0-.29-.89l-3-3 4.21-.61a1 1 0 0 0 .76-.55L12 5.7l1.88 3.82a1 1 0 0 0 .76.55l4.21.61Z"></path></svg></svg>