<svg xmlns="http://www.w3.org/2000/svg" viewBox="0 0 24 24" id="star"><path fill="#currentColor" d="M17.56248,21.55957a1.00275,1.00275,0,0,1-.46531-.11475L12,18.76514,6.90283,21.44482a1.00019,1.00019,0,0,1-1.45117-1.0542l.97363-5.67578-4.12353-4.019a1.00033,1.00033,0,0,1,.5542-1.706l5.69873-.82813L11.103,2.99805a1.04173,1.04173,0,0,1,1.79394,0l2.54834,5.16357,5.69873.82813a1.00033,1.00033,0,0,1,.5542,1.706l-4.12353,4.019.97363,5.67578a1,1,0,0,1-.98586,1.169Z"></path>
    <path fill="#001cff" d="M22,9.67A1,1,0,0,0,21.14,9l-5.69-.83L12.9,3a1,1,0,0,0-1.8,0L8.55,8.16,2.86,9a1,1,0,0,0-.81.68,1,1,0,0,0,.25,1l4.13,4-1,5.68a1,1,0,0,0,.4,1,1,1,0,0,0,1.05.07L12,18.76l5.1,2.68a.93.93,0,0,0,.46.12,1,1,0,0,0,.59-.19,1,1,0,0,0,.4-1l-1-5.68,4.13-4A1,1,0,0,0,22,9.67Zm-6.15,4a1,1,0,0,0-.29.89l.72,4.19-3.76-2a1,1,0,0,0-.94,0l-3.76,2,.72-4.19a1,1,0,0,0-.29-.89l-3-3,4.21-.61a1,1,0,0,0,.76-.55L12,5.7l1.88,3.82a1,1,0,0,0,.76.55l4.21.61Z"></path>
</svg>
